<?xml version="1.0" encoding="UTF-8"?>
<svg xmlns="http://www.w3.org/2000/svg" xmlns:xlink="http://www.w3.org/1999/xlink" width="375pt" height="374.999991pt" viewBox="0 0 375 374.999991" version="1.2">
<defs>
<clipPath id="clip1">
  <path d="M 170 30 L 188 30 L 188 51 L 170 51 Z M 170 30 "/>
</clipPath>
<clipPath id="clip2">
  <path d="M 37.949219 112.296875 L 176.117188 14.113281 L 336.859375 240.320312 L 198.691406 338.503906 Z M 37.949219 112.296875 "/>
</clipPath>
<clipPath id="clip3">
  <path d="M 37.949219 112.296875 L 176.117188 14.113281 L 336.859375 240.320312 L 198.691406 338.503906 Z M 37.949219 112.296875 "/>
</clipPath>
<clipPath id="clip4">
  <path d="M 50 30 L 185 30 L 185 141 L 50 141 Z M 50 30 "/>
</clipPath>
<clipPath id="clip5">
  <path d="M 37.949219 112.296875 L 176.117188 14.113281 L 336.859375 240.320312 L 198.691406 338.503906 Z M 37.949219 112.296875 "/>
</clipPath>
<clipPath id="clip6">
  <path d="M 37.949219 112.296875 L 176.117188 14.113281 L 336.859375 240.320312 L 198.691406 338.503906 Z M 37.949219 112.296875 "/>
</clipPath>
<clipPath id="clip7">
  <path d="M 48 27 L 187 27 L 187 143 L 48 143 Z M 48 27 "/>
</clipPath>
<clipPath id="clip8">
  <path d="M 37.949219 112.296875 L 176.117188 14.113281 L 336.859375 240.320312 L 198.691406 338.503906 Z M 37.949219 112.296875 "/>
</clipPath>
<clipPath id="clip9">
  <path d="M 37.949219 112.296875 L 176.117188 14.113281 L 336.859375 240.320312 L 198.691406 338.503906 Z M 37.949219 112.296875 "/>
</clipPath>
<clipPath id="clip10">
  <path d="M 169 172 L 180 172 L 180 185 L 169 185 Z M 169 172 "/>
</clipPath>
<clipPath id="clip11">
  <path d="M 37.949219 112.296875 L 176.117188 14.113281 L 336.859375 240.320312 L 198.691406 338.503906 Z M 37.949219 112.296875 "/>
</clipPath>
<clipPath id="clip12">
  <path d="M 37.949219 112.296875 L 176.117188 14.113281 L 336.859375 240.320312 L 198.691406 338.503906 Z M 37.949219 112.296875 "/>
</clipPath>
<clipPath id="clip13">
  <path d="M 166 170 L 183 170 L 183 187 L 166 187 Z M 166 170 "/>
</clipPath>
<clipPath id="clip14">
  <path d="M 37.949219 112.296875 L 176.117188 14.113281 L 336.859375 240.320312 L 198.691406 338.503906 Z M 37.949219 112.296875 "/>
</clipPath>
<clipPath id="clip15">
  <path d="M 37.949219 112.296875 L 176.117188 14.113281 L 336.859375 240.320312 L 198.691406 338.503906 Z M 37.949219 112.296875 "/>
</clipPath>
<clipPath id="clip16">
  <path d="M 240 275 L 267 275 L 267 300 L 240 300 Z M 240 275 "/>
</clipPath>
<clipPath id="clip17">
  <path d="M 37.949219 112.296875 L 176.117188 14.113281 L 336.859375 240.320312 L 198.691406 338.503906 Z M 37.949219 112.296875 "/>
</clipPath>
<clipPath id="clip18">
  <path d="M 37.949219 112.296875 L 176.117188 14.113281 L 336.859375 240.320312 L 198.691406 338.503906 Z M 37.949219 112.296875 "/>
</clipPath>
<clipPath id="clip19">
  <path d="M 170 178 L 260 178 L 260 291 L 170 291 Z M 170 178 "/>
</clipPath>
<clipPath id="clip20">
  <path d="M 37.949219 112.296875 L 176.117188 14.113281 L 336.859375 240.320312 L 198.691406 338.503906 Z M 37.949219 112.296875 "/>
</clipPath>
<clipPath id="clip21">
  <path d="M 37.949219 112.296875 L 176.117188 14.113281 L 336.859375 240.320312 L 198.691406 338.503906 Z M 37.949219 112.296875 "/>
</clipPath>
<clipPath id="clip22">
  <path d="M 49 126 L 60 126 L 60 138 L 49 138 Z M 49 126 "/>
</clipPath>
<clipPath id="clip23">
  <path d="M 37.949219 112.296875 L 176.117188 14.113281 L 336.859375 240.320312 L 198.691406 338.503906 Z M 37.949219 112.296875 "/>
</clipPath>
<clipPath id="clip24">
  <path d="M 37.949219 112.296875 L 176.117188 14.113281 L 336.859375 240.320312 L 198.691406 338.503906 Z M 37.949219 112.296875 "/>
</clipPath>
<clipPath id="clip25">
  <path d="M 48 120 L 66 120 L 66 141 L 48 141 Z M 48 120 "/>
</clipPath>
<clipPath id="clip26">
  <path d="M 37.949219 112.296875 L 176.117188 14.113281 L 336.859375 240.320312 L 198.691406 338.503906 Z M 37.949219 112.296875 "/>
</clipPath>
<clipPath id="clip27">
  <path d="M 37.949219 112.296875 L 176.117188 14.113281 L 336.859375 240.320312 L 198.691406 338.503906 Z M 37.949219 112.296875 "/>
</clipPath>
<clipPath id="clip28">
  <path d="M 155 32 L 221 32 L 221 177 L 155 177 Z M 155 32 "/>
</clipPath>
<clipPath id="clip29">
  <path d="M 37.949219 112.296875 L 176.117188 14.113281 L 336.859375 240.320312 L 198.691406 338.503906 Z M 37.949219 112.296875 "/>
</clipPath>
<clipPath id="clip30">
  <path d="M 37.949219 112.296875 L 176.117188 14.113281 L 336.859375 240.320312 L 198.691406 338.503906 Z M 37.949219 112.296875 "/>
</clipPath>
</defs>
<g id="surface1">
<g clip-path="url(#clip1)" clip-rule="nonzero">
<g clip-path="url(#clip2)" clip-rule="nonzero">
<g clip-path="url(#clip3)" clip-rule="nonzero">
<path style=" stroke:none;fill-rule:nonzero;fill:rgb(13.328552%,13.328552%,13.328552%);fill-opacity:1;" d="M 186.097656 50.390625 C 187.273438 49.527344 187.53125 47.875 186.667969 46.695312 L 175.621094 31.570312 C 174.757812 30.394531 173.109375 30.140625 171.929688 31 C 170.75 31.859375 170.496094 33.507812 171.351562 34.691406 L 182.402344 49.8125 C 183.269531 50.992188 184.921875 51.25 186.097656 50.390625 "/>
</g>
</g>
</g>
<g clip-path="url(#clip4)" clip-rule="nonzero">
<g clip-path="url(#clip5)" clip-rule="nonzero">
<g clip-path="url(#clip6)" clip-rule="nonzero">
<path style=" stroke:none;fill-rule:nonzero;fill:rgb(13.328552%,13.328552%,13.328552%);fill-opacity:1;" d="M 79.859375 138.113281 L 179.429688 65.351562 C 184.429688 61.699219 185.574219 54.75 181.976562 49.835938 L 170.765625 34.496094 C 167.171875 29.570312 160.207031 28.542969 155.210938 32.199219 L 55.636719 104.960938 C 50.640625 108.613281 49.5 115.5625 53.09375 120.480469 L 64.304688 135.816406 C 67.898438 140.738281 74.863281 141.761719 79.859375 138.113281 "/>
</g>
</g>
</g>
<g clip-path="url(#clip7)" clip-rule="nonzero">
<g clip-path="url(#clip8)" clip-rule="nonzero">
<g clip-path="url(#clip9)" clip-rule="nonzero">
<path style=" stroke:none;fill-rule:nonzero;fill:rgb(100%,100%,100%);fill-opacity:1;" d="M 79.859375 138.113281 L 81.40625 140.222656 L 180.972656 67.460938 C 184.015625 65.242188 185.910156 62.007812 186.492188 58.578125 C 187.082031 55.152344 186.359375 51.484375 184.199219 48.441406 C 184.160156 48.390625 184.125 48.339844 184.089844 48.296875 L 172.878906 32.953125 C 170.671875 29.929688 167.417969 28.082031 163.984375 27.554688 C 160.546875 27.023438 156.882812 27.800781 153.824219 29.976562 C 153.769531 30.011719 153.71875 30.050781 153.664062 30.089844 L 153.667969 30.089844 L 54.09375 102.847656 C 51.050781 105.070312 49.160156 108.308594 48.578125 111.738281 C 47.992188 115.164062 48.710938 118.832031 50.875 121.875 C 50.910156 121.921875 50.945312 121.972656 50.988281 122.027344 L 50.984375 122.023438 L 62.191406 137.359375 C 64.398438 140.382812 67.65625 142.226562 71.09375 142.753906 C 74.53125 143.28125 78.195312 142.507812 81.257812 140.332031 C 81.304688 140.296875 81.355469 140.261719 81.40625 140.226562 L 81.40625 140.222656 L 79.859375 138.113281 L 78.320312 136 L 78.226562 136.070312 C 76.296875 137.4375 74.023438 137.910156 71.882812 137.585938 C 69.738281 137.25 67.773438 136.132812 66.414062 134.277344 L 55.195312 118.925781 L 55.199219 118.929688 L 55.136719 118.847656 C 53.8125 116.980469 53.371094 114.757812 53.734375 112.621094 C 54.097656 110.480469 55.265625 108.472656 57.179688 107.070312 L 156.753906 34.3125 L 156.851562 34.242188 C 158.78125 32.871094 161.050781 32.398438 163.191406 32.726562 C 165.328125 33.0625 167.296875 34.179688 168.65625 36.035156 L 179.867188 51.375 L 179.863281 51.371094 L 179.9375 51.46875 C 181.261719 53.335938 181.699219 55.554688 181.335938 57.691406 C 180.972656 59.828125 179.804688 61.835938 177.886719 63.238281 L 78.320312 136 L 79.859375 138.113281 "/>
</g>
</g>
</g>
<g clip-path="url(#clip10)" clip-rule="nonzero">
<g clip-path="url(#clip11)" clip-rule="nonzero">
<g clip-path="url(#clip12)" clip-rule="nonzero">
<path style=" stroke:none;fill-rule:nonzero;fill:rgb(100%,100%,100%);fill-opacity:1;" d="M 178.152344 183.507812 C 179.867188 182.253906 180.292969 179.921875 179.105469 178.292969 L 176.023438 174.074219 C 174.832031 172.449219 172.476562 172.144531 170.757812 173.398438 C 169.050781 174.652344 168.621094 176.984375 169.808594 178.613281 L 172.894531 182.832031 C 174.082031 184.460938 176.433594 184.761719 178.152344 183.507812 "/>
</g>
</g>
</g>
<g clip-path="url(#clip13)" clip-rule="nonzero">
<g clip-path="url(#clip14)" clip-rule="nonzero">
<g clip-path="url(#clip15)" clip-rule="nonzero">
<path style=" stroke:none;fill-rule:nonzero;fill:rgb(13.328552%,13.328552%,13.328552%);fill-opacity:1;" d="M 178.152344 183.507812 L 179.699219 185.621094 C 181.085938 184.601562 181.984375 183.128906 182.28125 181.546875 C 182.429688 180.757812 182.429688 179.933594 182.265625 179.128906 C 182.101562 178.320312 181.765625 177.523438 181.261719 176.816406 L 181.222656 176.761719 L 178.117188 172.511719 L 178.128906 172.527344 C 177.617188 171.828125 176.96875 171.257812 176.253906 170.847656 C 174.105469 169.613281 171.390625 169.746094 169.289062 171.234375 L 169.210938 171.292969 L 169.214844 171.289062 C 167.828125 172.300781 166.929688 173.773438 166.632812 175.355469 C 166.480469 176.144531 166.480469 176.964844 166.644531 177.777344 C 166.808594 178.585938 167.148438 179.378906 167.648438 180.085938 C 167.660156 180.097656 167.679688 180.128906 167.714844 180.175781 L 169.808594 178.613281 L 167.695312 180.152344 L 170.78125 184.375 L 170.785156 184.378906 C 171.296875 185.078125 171.945312 185.648438 172.660156 186.0625 C 174.808594 187.296875 177.523438 187.164062 179.625 185.671875 L 179.691406 185.625 L 179.699219 185.621094 L 178.152344 183.507812 L 176.613281 181.394531 L 176.597656 181.410156 C 176.28125 181.628906 175.941406 181.695312 175.648438 181.65625 C 175.503906 181.636719 175.375 181.59375 175.269531 181.53125 C 175.167969 181.46875 175.082031 181.394531 175.003906 181.292969 L 174.960938 181.234375 L 171.910156 177.058594 L 171.902344 177.046875 L 170.910156 177.789062 L 171.914062 177.066406 L 171.902344 177.046875 L 170.910156 177.789062 L 171.914062 177.066406 L 171.910156 177.058594 C 171.835938 176.953125 171.796875 176.851562 171.769531 176.730469 C 171.734375 176.554688 171.746094 176.332031 171.832031 176.109375 C 171.921875 175.890625 172.070312 175.679688 172.304688 175.511719 L 172.316406 175.5 C 172.632812 175.277344 172.972656 175.214844 173.265625 175.25 C 173.410156 175.269531 173.539062 175.316406 173.644531 175.378906 C 173.75 175.441406 173.835938 175.515625 173.917969 175.621094 L 176.996094 179.835938 L 176.980469 179.816406 L 177 179.84375 C 177.074219 179.949219 177.117188 180.050781 177.144531 180.171875 C 177.179688 180.351562 177.167969 180.574219 177.082031 180.796875 C 176.992188 181.015625 176.839844 181.226562 176.609375 181.398438 L 176.613281 181.394531 L 178.152344 183.507812 "/>
</g>
</g>
</g>
<g clip-path="url(#clip16)" clip-rule="nonzero">
<g clip-path="url(#clip17)" clip-rule="nonzero">
<g clip-path="url(#clip18)" clip-rule="nonzero">
<path style=" stroke:none;fill-rule:nonzero;fill:rgb(13.328552%,13.328552%,13.328552%);fill-opacity:1;" d="M 260.519531 291.273438 L 262.0625 293.382812 C 264.242188 291.789062 265.589844 289.449219 265.984375 286.980469 C 266.386719 284.507812 265.84375 281.863281 264.28125 279.667969 L 264.203125 279.554688 L 264.207031 279.5625 C 262.613281 277.378906 260.273438 276.027344 257.804688 275.632812 C 255.332031 275.226562 252.6875 275.765625 250.492188 277.328125 C 250.460938 277.351562 250.421875 277.378906 250.378906 277.410156 L 250.386719 277.40625 L 244.945312 281.378906 C 242.765625 282.972656 241.417969 285.3125 241.023438 287.785156 C 240.621094 290.257812 241.164062 292.902344 242.726562 295.09375 C 242.75 295.125 242.773438 295.164062 242.804688 295.207031 L 242.800781 295.199219 C 244.394531 297.382812 246.738281 298.730469 249.207031 299.128906 C 251.679688 299.535156 254.324219 298.992188 256.519531 297.433594 L 256.617188 297.359375 L 256.621094 297.359375 L 262.0625 293.382812 L 258.972656 289.160156 L 253.535156 293.132812 L 253.539062 293.132812 L 253.488281 293.167969 C 252.445312 293.90625 251.21875 294.15625 250.042969 293.96875 C 248.863281 293.773438 247.78125 293.152344 247.023438 292.113281 L 246.988281 292.066406 C 246.25 291.023438 246 289.796875 246.1875 288.621094 C 246.378906 287.445312 246.996094 286.363281 248.035156 285.605469 L 253.480469 281.625 L 253.523438 281.59375 C 254.566406 280.851562 255.789062 280.605469 256.96875 280.792969 C 258.144531 280.988281 259.226562 281.609375 259.984375 282.644531 L 259.980469 282.640625 L 260.019531 282.695312 C 260.761719 283.738281 261.011719 284.964844 260.824219 286.140625 C 260.628906 287.316406 260.007812 288.398438 258.972656 289.160156 L 260.519531 291.273438 "/>
</g>
</g>
</g>
<g clip-path="url(#clip19)" clip-rule="nonzero">
<g clip-path="url(#clip20)" clip-rule="nonzero">
<g clip-path="url(#clip21)" clip-rule="nonzero">
<path style=" stroke:none;fill-rule:nonzero;fill:rgb(13.328552%,13.328552%,13.328552%);fill-opacity:1;" d="M 253.464844 288.296875 L 254.945312 287.207031 C 259.859375 283.617188 260.929688 276.714844 257.339844 271.796875 L 192.253906 182.734375 C 188.664062 177.816406 181.761719 176.738281 176.851562 180.332031 L 175.359375 181.414062 C 170.449219 185.007812 169.375 191.910156 172.972656 196.824219 L 238.054688 285.886719 C 241.644531 290.808594 248.546875 291.882812 253.464844 288.296875 "/>
</g>
</g>
</g>
<g clip-path="url(#clip22)" clip-rule="nonzero">
<g clip-path="url(#clip23)" clip-rule="nonzero">
<g clip-path="url(#clip24)" clip-rule="nonzero">
<path style=" stroke:none;fill-rule:nonzero;fill:rgb(13.328552%,13.328552%,13.328552%);fill-opacity:1;" d="M 58.523438 137.5 C 59.414062 136.851562 59.601562 135.605469 58.953125 134.71875 L 53.257812 126.925781 C 52.609375 126.035156 51.367188 125.84375 50.480469 126.488281 C 49.589844 127.140625 49.398438 128.382812 50.046875 129.273438 L 55.738281 137.066406 C 56.390625 137.953125 57.636719 138.144531 58.523438 137.5 "/>
</g>
</g>
</g>
<g clip-path="url(#clip25)" clip-rule="nonzero">
<g clip-path="url(#clip26)" clip-rule="nonzero">
<g clip-path="url(#clip27)" clip-rule="nonzero">
<path style=" stroke:none;fill-rule:nonzero;fill:rgb(13.328552%,13.328552%,13.328552%);fill-opacity:1;" d="M 64.175781 140.105469 C 65.351562 139.246094 65.609375 137.59375 64.746094 136.414062 L 53.695312 121.292969 C 52.835938 120.109375 51.183594 119.855469 50.003906 120.714844 C 48.828125 121.574219 48.566406 123.230469 49.433594 124.40625 L 60.484375 139.53125 C 61.339844 140.707031 62.992188 140.964844 64.175781 140.105469 "/>
</g>
</g>
</g>
<g clip-path="url(#clip28)" clip-rule="nonzero">
<g clip-path="url(#clip29)" clip-rule="nonzero">
<g clip-path="url(#clip30)" clip-rule="nonzero">
<path style=" stroke:none;fill-rule:nonzero;fill:rgb(13.328552%,13.328552%,13.328552%);fill-opacity:1;" d="M 172.890625 171.882812 L 161.203125 155.4375 L 220.257812 79.5 C 220.964844 78.589844 220.992188 77.320312 220.324219 76.382812 L 189.914062 33.589844 C 189.515625 33.027344 188.898438 32.636719 188.222656 32.523438 C 187.542969 32.410156 186.832031 32.570312 186.269531 32.96875 L 177.800781 38.988281 C 176.621094 39.824219 176.347656 41.457031 177.183594 42.636719 C 178.019531 43.8125 179.652344 44.089844 180.832031 43.253906 L 187.171875 38.75 L 214.9375 77.824219 L 155.882812 153.757812 C 155.171875 154.667969 155.148438 155.941406 155.816406 156.882812 L 168.628906 174.914062 C 169.464844 176.09375 171.097656 176.367188 172.273438 175.53125 C 173.453125 174.695312 173.726562 173.0625 172.890625 171.882812 "/>
</g>
</g>
</g>
</g>
</svg>
